<?xml version="1.0" encoding="UTF-8" standalone="no"?>
<!-- Created with Inkscape (http://www.inkscape.org/) -->

<svg
   xmlns:dc="http://purl.org/dc/elements/1.1/"
   xmlns:cc="http://creativecommons.org/ns#"
   xmlns:rdf="http://www.w3.org/1999/02/22-rdf-syntax-ns#"
   xmlns:svg="http://www.w3.org/2000/svg"
   xmlns="http://www.w3.org/2000/svg"
   xmlns:inkscape="http://www.inkscape.org/namespaces/inkscape"
   version="1.1"
   width="744.09998"
   height="921.26251"
   id="svg2"
   xml:space="preserve"><metadata
     id="metadata8"><rdf:RDF><cc:Work
         rdf:about=""><dc:format>image/svg+xml</dc:format><dc:type
           rdf:resource="http://purl.org/dc/dcmitype/StillImage" /></cc:Work></rdf:RDF></metadata><defs
     id="defs6" /><g
     transform="matrix(1.25,0,0,-1.25,0,921.2625)"
     id="g10"><g
       transform="scale(0.1,0.1)"
       id="g12"><path
         d="m 0,0 5952.75,0 0,7370.08 L 0,7370.08 0,0 z"
         inkscape:connector-curvature="0"
         id="path14"
         style="fill:#ed1c24;fill-opacity:1;fill-rule:nonzero;stroke:none" /><path
         d="m 3203.27,1824.08 0,5544.86 556.18,0 0,-4781.69 -93.81,-1560.3 -462.37,797.13"
         inkscape:connector-curvature="0"
         id="path16"
         style="fill:#ed1c24;fill-opacity:1;fill-rule:nonzero;stroke:none" /><path
         d="m 1816.21,3278.42 0,4091.21 1212.84,0 0,-5799.92 -830.89,1186.05 -301.54,462.35 -80.41,60.31"
         inkscape:connector-curvature="0"
         id="path18"
         style="fill:#ed1c24;fill-opacity:1;fill-rule:nonzero;stroke:none" /><path
         d="m 3861.86,984.902 0,6384.398 -162.72,0 0,-6489.632 c 0,0 144.5,-99.57 162.72,105.234"
         inkscape:connector-curvature="0"
         id="path20"
         style="fill:#fbc108;fill-opacity:1;fill-rule:nonzero;stroke:none" /><path
         d="m 2133.83,1676.91 0,918.03 654,-1125.74 -80.08,-113.91 -380.39,221.12 -193.53,100.5"
         inkscape:connector-curvature="0"
         id="path22"
         style="fill:#fbc108;fill-opacity:1;fill-rule:nonzero;stroke:none" /><path
         d="m 2313.87,3673.43 0,3695.87 1040.38,0 0,-5926.23 -1040.38,2230.36"
         inkscape:connector-curvature="0"
         id="path24"
         style="fill:#fbc108;fill-opacity:1;fill-rule:nonzero;stroke:none" /><path
         d="m 3626.48,2589.79 27.7344,0 0,4779.52 -27.7344,0 0,-4779.52 z"
         inkscape:connector-curvature="0"
         id="path26"
         style="fill:#fbc108;fill-opacity:1;fill-rule:nonzero;stroke:none" /><path
         d="m 3572.31,2559.69 27.7461,0 0,4810.39 -27.7461,0 0,-4810.39 z"
         inkscape:connector-curvature="0"
         id="path28"
         style="fill:#fbc108;fill-opacity:1;fill-rule:nonzero;stroke:none" /><path
         d="m 3513.42,2483.18 27.7461,0 0,4886.34 -27.7461,0 0,-4886.34 z"
         inkscape:connector-curvature="0"
         id="path30"
         style="fill:#fbc108;fill-opacity:1;fill-rule:nonzero;stroke:none" /><path
         d="m 2134.39,1669.47 22.4258,0 0,854.727 -22.4258,0 0,-854.727 z"
         inkscape:connector-curvature="0"
         id="path32"
         style="fill:#ed1c24;fill-opacity:1;fill-rule:nonzero;stroke:none" /><path
         d="m 2201.27,1745.55 22.4219,0 0,854.707 -22.4219,0 0,-854.707 z"
         inkscape:connector-curvature="0"
         id="path34"
         style="fill:#ed1c24;fill-opacity:1;fill-rule:nonzero;stroke:none" /><path
         d="m 2275.41,1784.9 22.4297,0 0,854.727 -22.4297,0 0,-854.727 z"
         inkscape:connector-curvature="0"
         id="path36"
         style="fill:#ed1c24;fill-opacity:1;fill-rule:nonzero;stroke:none" /><path
         d="m 2371.73,1766.56 22.4258,0 0,854.707 -22.4258,0 0,-854.707 z"
         inkscape:connector-curvature="0"
         id="path38"
         style="fill:#ed1c24;fill-opacity:1;fill-rule:nonzero;stroke:none" /><path
         d="m 2526.6,3312.85 100.766,0 0,4057.23 -100.766,0 0,-4057.23 z"
         inkscape:connector-curvature="0"
         id="path40"
         style="fill:#ed1c24;fill-opacity:1;fill-rule:nonzero;stroke:none" /><path
         d="m 2134.73,3032.95 44.7852,0 0,4337.13 -44.7852,0 0,-4337.13 z"
         inkscape:connector-curvature="0"
         id="path42"
         style="fill:#fbc108;fill-opacity:1;fill-rule:nonzero;stroke:none" /><path
         d="m 1134.55,5713.46 0,1656.62 1190.97,0 0,-2440.02 -355.69,-83.01 -549.94,420.24 -285.34,446.17"
         inkscape:connector-curvature="0"
         id="path44"
         style="fill:#7dd5f7;fill-opacity:1;fill-rule:nonzero;stroke:none" /><path
         d="m 3194.21,4732.91 0,2637.17 -902.72,0 0,-2419.27 430.6,-15.56 243.84,-93.38 77.82,-67.45 150.46,-41.51"
         inkscape:connector-curvature="0"
         id="path46"
         style="fill:#8b55b0;fill-opacity:1;fill-rule:nonzero;stroke:none" /><path
         d="m 2891.32,4646.45 0,191.46 63.57,-31.78 -14.38,-104.43 -49.19,-55.25"
         inkscape:connector-curvature="0"
         id="path48"
         style="fill:#7dd5f7;fill-opacity:1;fill-rule:nonzero;stroke:none" /><path
         d="m 3035.87,4723.64 101.4,-96.1 0,51.45 41.62,-15.13 0,62.8 -118.05,43.14 -24.97,-46.16"
         inkscape:connector-curvature="0"
         id="path50"
         style="fill:#7dd5f7;fill-opacity:1;fill-rule:nonzero;stroke:none" /><path
         d="m 3187.23,4777.38 -96.87,25.72 -24.97,-15.13 61.3,-40.86 71.13,-15.9 0,2638.87 -15.13,0 0,-2579.08 4.54,-13.62"
         inkscape:connector-curvature="0"
         id="path52"
         style="fill:#7dd5f7;fill-opacity:1;fill-rule:nonzero;stroke:none" /><path
         d="m 535.305,7370.08 466.205,0 0,-729.77 144.85,-194.63 -104.11,-660.84 122.21,-407.37 -212.737,-63.37 -325.895,113.16 -126.734,506.95 36.211,1435.87"
         inkscape:connector-curvature="0"
         id="path54"
         style="fill:#7dd5f7;fill-opacity:1;fill-rule:nonzero;stroke:none" /><path
         d="m 124.414,6103.61 0,1266.47 434.746,0 0,-1337.45 -434.746,70.98"
         inkscape:connector-curvature="0"
         id="path56"
         style="fill:#8b55b0;fill-opacity:1;fill-rule:nonzero;stroke:none" /><path
         d="m 955.703,6633.37 0,736.71 370.117,0 0,-945.06 -370.117,208.35"
         inkscape:connector-curvature="0"
         id="path58"
         style="fill:#8b55b0;fill-opacity:1;fill-rule:nonzero;stroke:none" /><path
         d="m 1481.31,5345.78 0,2024.3 140.32,0 0,-2010.72 -140.32,-13.58"
         inkscape:connector-curvature="0"
         id="path60"
         style="fill:#8b55b0;fill-opacity:1;fill-rule:nonzero;stroke:none" /><path
         d="m 1802.69,5155.68 0,2214.4 -54.33,0 0,-2074.08 54.33,-140.32"
         inkscape:connector-curvature="0"
         id="path62"
         style="fill:#8b55b0;fill-opacity:1;fill-rule:nonzero;stroke:none" /><path
         d="m 737.543,3982.38 0,1195.76 341.287,-127.05 503.22,-478.3 -303.93,-176.87 -351.249,-241.65 -84.699,-97.15 -104.629,-74.74"
         inkscape:connector-curvature="0"
         id="path64"
         style="fill:#8b55b0;fill-opacity:1;fill-rule:nonzero;stroke:none" /><path
         d="m 1061.79,3956.91 0,238.83 -101.587,-62.81 -17.836,-50.4 38,-67.46 55.833,-49.63 25.59,-8.53"
         inkscape:connector-curvature="0"
         id="path66"
         style="fill:#7dd5f7;fill-opacity:1;fill-rule:nonzero;stroke:none" /><path
         d="m 744.629,3929.77 0,51.18 83.75,50.4 65.137,-47.31 -37.223,-134.92 -16.281,3.88 0,71.34 -39.551,-55.06 -13.957,3.88 0,76.76 -41.875,-20.15"
         inkscape:connector-curvature="0"
         id="path68"
         style="fill:#7dd5f7;fill-opacity:1;fill-rule:nonzero;stroke:none" /><path
         d="m 707.312,5436.31 0,1933.77 -63.367,0 0,-1598.82 9.051,-303.26 54.316,-31.69"
         inkscape:connector-curvature="0"
         id="path70"
         style="fill:#8b55b0;fill-opacity:1;fill-rule:nonzero;stroke:none" /><path
         d="m 2229.84,4589.05 0,226.79 -173.11,-46.28 -36.1,-38.88 143.48,-187.91 49.99,39.8 15.74,6.48"
         inkscape:connector-curvature="0"
         id="path72"
         style="fill:#7dd5f7;fill-opacity:1;fill-rule:nonzero;stroke:none" /><path
         d="m 2169.66,4496.48 0,41.66 -47.21,-39.8 10.19,-12.04 37.02,10.18"
         inkscape:connector-curvature="0"
         id="path74"
         style="fill:#7dd5f7;fill-opacity:1;fill-rule:nonzero;stroke:none" /><path
         d="m 2072.46,4462.24 -12.03,-19.45 -27.77,-8.33 0,33.33 39.8,-5.55"
         inkscape:connector-curvature="0"
         id="path76"
         style="fill:#7dd5f7;fill-opacity:1;fill-rule:nonzero;stroke:none" /><path
         d="m 2078.02,4444.65 -12.96,-19.44 0,21.29 c 0,0 11.11,3.71 12.96,-1.85"
         inkscape:connector-curvature="0"
         id="path78"
         style="fill:#7dd5f7;fill-opacity:1;fill-rule:nonzero;stroke:none" /><path
         d="m 984.859,4973.52 0,75.79 29.771,-15.34 -29.771,-60.45"
         inkscape:connector-curvature="0"
         id="path80"
         style="fill:#7dd5f7;fill-opacity:1;fill-rule:nonzero;stroke:none" /><path
         d="m 1287.89,4462.56 0,333.1 92.88,-14.41 161.75,-203.39 c 0,0 -213,-145.73 -254.63,-115.3"
         inkscape:connector-curvature="0"
         id="path82"
         style="fill:#7dd5f7;fill-opacity:1;fill-rule:nonzero;stroke:none" /><path
         d="m 5660.31,3234.41 -605.21,512.1 -450.03,620.73 0,3002.83 1078.52,0 0,-4182.22 -23.28,46.56"
         inkscape:connector-curvature="0"
         id="path84"
         style="fill:#3674a1;fill-opacity:1;fill-rule:nonzero;stroke:none" /><path
         d="m 5787.27,3190.87 0,4179.21 -173.85,0 0,-4137.81 173.85,-41.4"
         inkscape:connector-curvature="0"
         id="path86"
         style="fill:#8acf25;fill-opacity:1;fill-rule:nonzero;stroke:none" /><path
         d="m 4911.44,7370.08 -147.28,0 0,-1496.22 98.43,-81.31 48.85,60.99 0,1516.54"
         inkscape:connector-curvature="0"
         id="path88"
         style="fill:#3674a1;fill-opacity:1;fill-rule:nonzero;stroke:none" /><path
         d="m 4794.72,5944.27 22.4688,0 0,1425.81 -22.4688,0 0,-1425.81 z"
         inkscape:connector-curvature="0"
         id="path90"
         style="fill:#8acf25;fill-opacity:1;fill-rule:nonzero;stroke:none" /><path
         d="m 4842.97,5935.59 13.1836,0 0,1434.18 -13.1836,0 0,-1434.18 z"
         inkscape:connector-curvature="0"
         id="path92"
         style="fill:#8acf25;fill-opacity:1;fill-rule:nonzero;stroke:none" /><path
         d="m 4868.61,5899.8 17.1641,0 0,1470.06 -17.1641,0 0,-1470.06 z"
         inkscape:connector-curvature="0"
         id="path94"
         style="fill:#8acf25;fill-opacity:1;fill-rule:nonzero;stroke:none" /><path
         d="m 4894.04,5854.18 17.168,0 0,1515.54 -17.168,0 0,-1515.54 z"
         inkscape:connector-curvature="0"
         id="path96"
         style="fill:#8acf25;fill-opacity:1;fill-rule:nonzero;stroke:none" /><path
         d="m 3534.57,7370.08 600.88,0 0,-2406.91 -300.44,30.04 -300.44,410.6 0,1966.27"
         inkscape:connector-curvature="0"
         id="path98"
         style="fill:#3674a1;fill-opacity:1;fill-rule:nonzero;stroke:none" /><path
         d="m 4801.42,7370.08 -600.88,0 0,-2406.91 300.44,30.04 300.44,410.6 0,1966.27"
         inkscape:connector-curvature="0"
         id="path100"
         style="fill:#3674a1;fill-opacity:1;fill-rule:nonzero;stroke:none" /><path
         d="m 3471.55,5563.68 0,1806.4 149.4,0 0,-1726.46 -87.47,-79.94 -61.93,0"
         inkscape:connector-curvature="0"
         id="path102"
         style="fill:#8acf25;fill-opacity:1;fill-rule:nonzero;stroke:none" /><path
         d="m 4070.35,5243.57 270.391,0 0,2126.5 -270.391,0 0,-2126.5 z"
         inkscape:connector-curvature="0"
         id="path104"
         style="fill:#8acf25;fill-opacity:1;fill-rule:nonzero;stroke:none" /><path
         d="m 3909.43,4365.46 0,520.49 151.38,-86.29 -40.26,-383.99 -92.04,-60.4 -19.08,10.19"
         inkscape:connector-curvature="0"
         id="path106"
         style="fill:#8acf25;fill-opacity:1;fill-rule:nonzero;stroke:none" /><path
         d="m 4788.55,5333.2 -208.53,-395.5 7.19,-96.36 c 0,0 151,-250.24 155.32,-250.24 4.32,0 47.46,-1.44 47.46,-1.44 l -1.44,743.54"
         inkscape:connector-curvature="0"
         id="path108"
         style="fill:#8acf25;fill-opacity:1;fill-rule:nonzero;stroke:none" /><path
         d="m 4831.69,4579.61 0,891.65 -51.77,-129.44 0,-757.91 51.77,-4.3"
         inkscape:connector-curvature="0"
         id="path110"
         style="fill:#8acf25;fill-opacity:1;fill-rule:nonzero;stroke:none" /><path
         d="m 3988.8,2945.7 0,1454.67 223.98,148.86 81.93,-857.04 -263.81,-837.99 -42.1,91.5"
         inkscape:connector-curvature="0"
         id="path112"
         style="fill:#3674a1;fill-opacity:1;fill-rule:nonzero;stroke:none" /><path
         d="m 4225.48,2655.05 0,295.04 -43.87,-41.68 -34,-71.29 44.97,-156.83 32.9,-25.24"
         inkscape:connector-curvature="0"
         id="path114"
         style="fill:#8acf25;fill-opacity:1;fill-rule:nonzero;stroke:none" /><path
         d="m 3551.69,5690.36 41.2734,0 0,1679.72 -41.2734,0 0,-1679.72 z"
         inkscape:connector-curvature="0"
         id="path116"
         style="fill:#3674a1;fill-opacity:1;fill-rule:nonzero;stroke:none" /><path
         d="m 3500.18,5690.36 20.6367,0 0,1679.72 -20.6367,0 0,-1679.72 z"
         inkscape:connector-curvature="0"
         id="path118"
         style="fill:#3674a1;fill-opacity:1;fill-rule:nonzero;stroke:none" /><path
         d="m 3462.3,5379.77 0,1990.31 16.56,0 0,-1649.54 53.45,-316.73 -56.58,-30.31 -13.43,6.27"
         inkscape:connector-curvature="0"
         id="path120"
         style="fill:#3674a1;fill-opacity:1;fill-rule:nonzero;stroke:none" /><path
         d="m 988.16,2489.94 27.85,-85.7 90.11,0 -72.9,-52.97 27.84,-85.7 -72.9,52.97 -72.906,-52.97 27.848,85.7 -72.903,52.97 90.113,0 27.848,85.7"
         inkscape:connector-curvature="0"
         id="path122"
         style="fill:#fbc108;fill-opacity:1;fill-rule:nonzero;stroke:none" /><path
         d="m 1566.06,3880.25 27.85,-85.7 90.11,0 -72.9,-52.97 27.85,-85.7 -72.91,52.97 -72.9,-52.97 27.85,85.7 -72.9,52.97 90.11,0 27.84,85.7"
         inkscape:connector-curvature="0"
         id="path124"
         style="fill:#fbc108;fill-opacity:1;fill-rule:nonzero;stroke:none" /><path
         d="m 602.516,3387.96 27.843,-85.7 90.114,0 -72.899,-52.97 27.848,-85.7 -72.906,52.96 -72.907,-52.96 27.848,85.7 -72.902,52.97 90.113,0 27.848,85.7"
         inkscape:connector-curvature="0"
         id="path126"
         style="fill:#fbc108;fill-opacity:1;fill-rule:nonzero;stroke:none" /><path
         d="m 393.484,1213.29 27.848,-85.7 90.113,0 -72.898,-52.97 27.844,-85.702 -72.907,52.972 -72.902,-52.972 27.848,85.702 -72.903,52.97 90.114,0 27.843,85.7"
         inkscape:connector-curvature="0"
         id="path128"
         style="fill:#fbc108;fill-opacity:1;fill-rule:nonzero;stroke:none" /><path
         d="m 1752.54,1956.91 27.85,-85.7 90.11,0 -72.9,-52.97 27.85,-85.7 -72.91,52.97 -72.91,-52.97 27.85,85.7 -72.9,52.97 90.11,0 27.85,85.7"
         inkscape:connector-curvature="0"
         id="path130"
         style="fill:#fbc108;fill-opacity:1;fill-rule:nonzero;stroke:none" /><path
         d="m 1510.92,922.988 27.85,-85.703 90.11,0 -72.9,-52.969 27.85,-85.703 -72.91,52.969 -72.9,-52.969 27.84,85.703 -72.9,52.969 90.11,0 27.85,85.703"
         inkscape:connector-curvature="0"
         id="path132"
         style="fill:#fbc108;fill-opacity:1;fill-rule:nonzero;stroke:none" /><path
         d="m 298.203,4659.38 27.848,-85.71 90.109,0 -72.898,-52.97 27.847,-85.7 -72.906,52.97 -72.906,-52.97 27.848,85.7 -72.903,52.97 90.113,0 27.848,85.71"
         inkscape:connector-curvature="0"
         id="path134"
         style="fill:#fbc108;fill-opacity:1;fill-rule:nonzero;stroke:none" /><path
         d="m 2630.06,291.242 27.85,-85.707 90.11,0 -72.9,-52.965 27.85,-85.7028 -72.91,52.9688 -72.91,-52.9688 27.85,85.7028 -72.89,52.965 90.1,0 27.85,85.707"
         inkscape:connector-curvature="0"
         id="path136"
         style="fill:#fbc108;fill-opacity:1;fill-rule:nonzero;stroke:none" /><path
         d="m 4488.09,1942.82 27.85,-85.7 90.11,0 -72.91,-52.97 27.86,-85.7 -72.91,52.97 -72.91,-52.97 27.85,85.7 -72.9,52.97 90.1,0 27.86,85.7"
         inkscape:connector-curvature="0"
         id="path138"
         style="fill:#fbc108;fill-opacity:1;fill-rule:nonzero;stroke:none" /><path
         d="m 4125.42,657.473 27.85,-85.703 90.11,0 -72.9,-52.969 27.85,-85.703 -72.91,52.968 -72.91,-52.968 27.85,85.703 -72.9,52.969 90.11,0 27.85,85.703"
         inkscape:connector-curvature="0"
         id="path140"
         style="fill:#fbc108;fill-opacity:1;fill-rule:nonzero;stroke:none" /><path
         d="m 5669.75,2525.08 27.85,-85.7 90.11,0 -72.91,-52.97 27.86,-85.71 -72.91,52.97 -72.91,-52.97 27.85,85.71 -72.9,52.97 90.1,0 27.86,85.7"
         inkscape:connector-curvature="0"
         id="path142"
         style="fill:#fbc108;fill-opacity:1;fill-rule:nonzero;stroke:none" /><path
         d="m 4891.6,3287.34 27.85,-85.7 90.11,0 -72.9,-52.97 27.85,-85.7 -72.91,52.97 -72.91,-52.97 27.85,85.7 -72.9,52.97 90.11,0 27.85,85.7"
         inkscape:connector-curvature="0"
         id="path144"
         style="fill:#fbc108;fill-opacity:1;fill-rule:nonzero;stroke:none" /><path
         d="m 5398.45,1307.6 27.85,-85.71 90.11,0 -72.9,-52.96 27.85,-85.71 -72.91,52.97 -72.91,-52.97 27.85,85.71 -72.9,52.96 90.11,0 27.85,85.71"
         inkscape:connector-curvature="0"
         id="path146"
         style="fill:#fbc108;fill-opacity:1;fill-rule:nonzero;stroke:none" /><path
         d="m 815.355,3868.06 c 3.204,7.71 59.747,108.23 63.086,98.05 3.332,-10.19 -31.093,-85.73 -37.793,-104.18 -6.718,-18.46 18.274,-27.65 22.637,-20.69 4.375,6.98 45.938,99.09 49.309,114.8 3.367,15.7 35.39,40.94 49.472,40.19 14.11,-0.75 34.872,-21.86 47.074,-35.96 12.19,-14.13 42.57,-12.15 52.33,-6.92 9.74,5.22 -28.89,39.16 -52.13,53.72 -23.223,14.57 -52.801,78.44 -37.207,105.89 2.324,4.11 13.965,15.98 13.965,15.98 55.092,51.31 223.212,127 279.832,160.39 56.63,33.4 62.43,52.96 74.91,42.13 12.46,-10.8 96.02,19.92 131.62,24.51 35.61,4.58 218.3,47.86 260.49,73.11 42.19,25.24 103.67,109.46 120.43,127.77 16.76,18.33 25.33,13.77 25.33,13.77 0,0 25.84,-46.01 52.73,-67.34 26.9,-21.32 92.36,-57.23 116.98,-51.41 21.36,5.04 -1.56,-13.8 -16.42,-18.3 12.55,0.88 35.73,2.87 40.42,9.29 7.27,9.97 -17.48,-26.3 -2.76,-20.07 14.74,6.23 26.47,31.62 26.47,31.62 0,0 57.7,13.93 70.63,31.65 12.94,17.73 0.14,11.8 -16,8.3 -16.15,-3.5 13.4,2.1 32.42,37.46 19.01,35.36 35.28,50.67 45.37,55.19 10.08,4.51 -17.64,6.08 -33.3,-13.05 -15.66,-19.15 23.73,30.21 33.23,38.56 9.49,8.36 -17.23,15.96 -31.56,0.96 -14.34,-15 8.2,22.88 2.91,50.51 -5.31,27.64 -17.96,52.18 -18.39,42.28 -0.42,-9.89 -0.45,-28.54 -6.07,-17.64 -5.64,10.91 -24.69,19.72 -39.98,35.97 -15.32,16.25 -57.46,9.67 -54.83,17.94 2.63,8.26 55.83,6.83 70.01,35.51 0,0 71.45,32.76 130.14,34.08 58.69,1.33 78.54,-6.38 84.92,9.35 6.37,15.72 9.22,28.93 9.22,28.93 0,0 69.21,15.71 95.84,14.97 26.61,-0.75 97.96,-23.95 179.88,-14.11 69.66,8.39 196.75,-5.51 248.36,-21.97 9.06,-2.89 15.84,-5.86 19.53,-8.8 24.66,-19.7 20.92,-89.99 4.76,-112.13 -16.17,-22.16 -39.45,-68.01 -28.45,-69.25 10.99,-1.23 39.94,8.22 46.03,25.86 6.08,17.63 17.52,44.94 30.33,50.87 12.82,5.92 51.92,-5.62 60.88,-18.96 8.95,-13.32 81.76,-83.42 88.4,-88.27 6.64,-4.85 26.45,12.96 13.34,27.61 -13.07,14.64 -73.09,72.01 -73.77,82.7 -0.7,10.69 89.14,-61.65 94.98,-67.61 5.84,-5.96 37.52,4.89 20.29,20.84 -17.2,15.96 -88.12,67.72 -95.37,76.39 -7.24,8.68 95.35,-32.21 104.73,-35.66 9.37,-3.45 26.03,21.74 0.96,31.56 -25.1,9.82 -96.16,31.1 -99.87,42.31 -3.73,11.19 95.34,-32.22 101.92,-11.56 6.6,20.66 -67.5,42.47 -86.74,46.32 -19.26,3.87 -83.91,59.53 -111.13,64.12 -8.64,1.45 -22.58,6.94 -39.26,14.32 -35.82,15.88 -84.34,40.54 -120.45,52.99 -52.93,18.23 -229.3,79 -319.08,63.01 -89.76,-15.98 -181.67,-37.23 -204.75,-33.96 -23.09,3.27 -36.15,36.57 -72.13,40.75 -36,4.2 -77.62,-43.55 -105.18,-55.7 -27.55,-12.15 -109.44,-22 -132.7,-5.02 -23.27,16.97 -181.97,171.81 -184.69,233.22 -2.72,61.42 -41.33,138.82 -66.15,128.08 -24.83,-10.76 -70.04,27.34 -67.58,49.31 2.45,21.98 -48.11,69.04 -73.74,57.19 -25.63,-11.86 -110.58,-39.86 -117.26,-53.66 -6.68,-13.81 -148.53,196.67 -182.92,265.9 -34.37,69.23 -74.38,149.37 -103.18,170.39 -10.7,7.81 -18.73,16.01 -24.59,23.67 1.95,61.13 24.65,179.36 60.09,242.31 45.53,80.9 72.18,159.31 54.05,182.13 -18.12,22.84 -44.71,32.22 -40.5,55.17 4.21,22.91 80.38,82.6 74.54,111.56 -5.84,28.96 -65.54,76.18 -95.91,92.89 -30.39,16.74 -79.77,59.26 -101.81,91.19 -22.03,31.93 -85.99,78.54 -121.07,84.98 -35.074,6.43 -56.851,-43.96 -45.613,-73.91 11.223,-29.95 105.013,-136.17 114.633,-182.55 9.62,-46.37 18.39,-69.19 5.64,-62.68 -12.73,6.52 -44.35,-15.17 -49.15,-33.81 -4.78,-18.62 -27.65,-188.77 -46.97,-240.99 -19.368,-52.21 -51.575,-258.28 -47.2,-280 0.149,-0.83 0.305,-2.17 0.45,-3.71 l 10.832,-77.4 c 1.55,-5.22 2.527,-9.69 2.675,-13.06 1.934,-43.87 46.102,-169.5 68.233,-204.33 22.13,-34.82 48.85,-105.26 40.97,-111.38 -7.87,-6.14 -33.48,0.66 -45.9,-14.04 -11.99,-14.2 -248.119,49.85 -301.603,47.74 -23.477,59.81 -46.875,145.59 -45.989,203.69 1.465,92.81 -17.019,193.59 -43.836,205.01 -26.816,11.43 -59.218,35.51 -66.464,57.68 -7.227,22.15 19.871,124.8 0.925,147.47 -18.945,22.66 -93.925,35.7 -128.597,35.91 -34.692,0.22 -98.387,14.06 -132.965,31.61 -34.606,17.56 -113.028,28.03 -146.938,16.98 -33.89,-11.08 -29.023,-65.77 -4.863,-86.72 24.145,-20.97 168.637,-83.48 199.203,-119.65 30.578,-36.18 53.731,-80.57 39.426,-80.93 -14.317,-0.34 -27.25,-53.62 -22.59,-72.29 4.68,-18.66 65.715,-179.1 73.613,-234.23 7.91,-55.13 77.836,-251.61 92.032,-268.62 0.539,-0.65 1.308,-1.77 2.171,-3.06 l 3.875,-5.88 c 36.29,-13.8 259.415,-129.54 289.247,-151.3 31.027,-22.65 159.386,-84.06 178.644,-87.93 19.249,-3.87 -24.883,-48.07 -11.914,-74.51 12.973,-26.43 191.253,-149.75 241.443,-169.39 50.19,-19.65 131.48,-24.63 155.81,-61.06 24.35,-36.44 33.61,-51.68 61.69,-80.68 28.09,-28.98 73.73,-57.2 63.72,-68.57 -10,-11.38 -202.37,-49.3 -213.29,-73.57 -10.93,-24.29 -1.37,-41.44 -22.96,-47.77 -21.59,-6.32 -87.78,-28.06 -194.12,-120.27 -106.328,-92.19 -136.621,-136.89 -165.605,-160.82 -5.782,-4.78 -18.985,-19.78 -18.985,-19.78 -5.176,-4.69 -9.715,-8.34 -13.418,-10.59 -23.574,-14.36 -62.937,-90.06 -79.363,-100.8 -16.438,-10.72 -77.149,-58.48 -63.352,-75.21 13.782,-16.75 89.641,60.35 90.344,48.57 0.711,-11.78 -57.363,-57.92 -77.004,-76.35 -19.668,-18.45 5.176,-35.63 12.598,-28.95 7.433,6.67 87.492,82.74 83.984,71.99 -3.496,-10.75 -50.125,-85.11 -60.183,-106.34 -10.071,-21.22 23.379,-19.51 26.589,-11.82"
         inkscape:connector-curvature="0"
         id="path148"
         style="fill:#110b09;fill-opacity:1;fill-rule:nonzero;stroke:none" /><path
         d="m 4802.08,5686.12 c 0,0 2.91,44.76 -11.46,71.73 -14.31,26.98 -19.12,62.17 -22.89,80.79 -3.82,18.62 -5.7,40.89 -2.43,41.41 3.25,0.52 19.24,-5.27 19.24,-5.27 0,0 -6.59,30.69 -1.73,47.35 4.89,16.68 12.33,37.95 24.16,37.31 11.8,-0.62 13.76,-12.85 7.43,-25.57 -6.33,-12.72 -0.88,-46.96 -0.88,-46.96 0,0 8.11,33.05 12.78,40.49 4.67,7.44 12.39,27.07 21.21,24.29 8.79,-2.77 13.76,-12.84 3.69,-33.68 -10.05,-20.85 -12.74,-56.37 -14.57,-65.87 -1.83,-9.48 25.31,50.86 35.43,60.83 10.12,9.98 15.3,-6.75 13.86,-18.68 -1.44,-11.94 -17.78,-40.46 -22.89,-50.47 -5.08,-10.01 3.45,-32.06 3.45,-32.06 0,0 23.57,51.41 31.47,54.33 7.88,2.93 16.51,-4.04 12.61,-21.39 -3.92,-17.33 -23.97,-48.95 -22.67,-57.11 1.29,-8.18 11.75,-47.45 2.58,-79.02 -9.19,-31.56 -29.29,-57.36 -31.2,-76.87 -1.91,-19.54 39.51,-53.91 37.48,-72.61 -2.02,-18.72 -9.73,-54.21 -18.88,-59.87 -9.13,-5.63 -19.45,6.93 -24.53,1.95 -5.05,-5.01 -42.41,-168.97 -70.8,-211.12 -28.41,-42.15 -77.82,-146.16 -75.76,-180.12 2.07,-33.96 -27.33,-75.66 -49.48,-99.26 -22.16,-23.59 -52.27,-60.16 -47.46,-90.35 4.82,-30.16 41.68,-150.28 62.55,-192.1 20.87,-41.81 85.68,-112.59 100.97,-119.35 15.29,-6.75 13.54,14.71 29.15,11.36 15.55,-3.38 34.89,-35.4 29.01,-45.56 -5.95,-10.13 -40.27,-46.53 -80.45,-67.17 -40.18,-20.61 -67.31,-39.15 -67.31,-39.15 0,0 -9.76,-54.23 4.38,-69.53 14.16,-15.29 97.14,-121.61 127.14,-162.82 29.99,-41.2 191.73,-263.69 206.01,-279.81 14.26,-16.12 23.98,-45.51 35.87,-51.97 11.88,-6.45 39.62,-38.81 51.3,-59.53 11.66,-20.71 20.63,-40.18 39.04,-45.6 18.42,-5.43 30.42,-17.71 38.03,-34.05 7.65,-16.35 35.29,-21.98 50.86,-25.35 15.6,-3.37 212.68,-215.67 284.14,-249.33 71.42,-33.63 151.27,-120.02 139.89,-142.85 -11.36,-22.83 -20.28,-42.26 -13.03,-50.13 7.26,-7.86 111.26,-57.33 133.5,-83.81 22.23,-26.47 32.98,-93.83 -28.64,-121.66 -61.61,-27.87 -111.96,24.16 -151.91,29.8 -39.93,5.65 -106.69,10.02 -116.29,32.5 -9.58,22.5 -9.67,79.55 -25.26,83.05 -15.57,3.53 -42.74,23.22 -59.12,50.64 -16.38,27.42 -61.21,101.35 -99.17,113.32 -37.96,11.96 -174.58,134.3 -237.57,190.32 -62.99,56.02 -69.04,94.08 -111.91,99.27 -42.88,5.15 -74.73,54.15 -85.84,67.37 -11.14,13.26 -99.07,56.27 -139.81,85.82 -40.77,29.53 -101.02,125.02 -142.03,118.48 -40.98,-6.54 -140.23,-325.68 -181.02,-371.24 -40.78,-45.53 -60.76,-183.85 -63.12,-244.29 -2.38,-60.45 -75.53,-204.24 -78.36,-261.76 -2.83,-57.5 -17.05,-137.85 -49.38,-161.02 -32.34,-23.18 -10.84,-82.81 -26.52,-97.34 -15.71,-14.51 22.42,-140.57 38.33,-165.04 15.93,-24.49 -18.54,-72.01 -86.23,-61.82 -67.69,10.22 -101.4,70.92 -109.92,105.57 -8.55,34.69 -6.64,98.05 -19.17,120.1 -12.51,22.03 -32.05,87.98 -19.15,120.06 12.9,32.09 36.45,53.86 32.25,80.21 -4.2,26.37 1.94,138.44 46.86,289.77 44.93,151.3 92.77,228 81.29,262.22 -11.47,34.2 7.88,82.35 15.74,89.6 7.83,7.25 -28.83,199.6 -10.31,271.62 18.55,72.03 47.89,226.86 35.02,269.84 -12.85,43.01 31.79,83.17 20.19,99.34 -11.6,16.16 -29.83,55.29 -29.83,55.29 0,0 -120.98,61.79 -166.54,27.48 -45.57,-34.31 -65.28,-61.45 -74.07,-62.84 -8.78,-1.42 -37.34,27.06 -29.97,37.23 7.39,10.2 83.79,58.42 83.79,58.42 0,0 3.22,111.62 15.88,182.71 12.67,71.1 41.84,176.61 21.47,191.39 -20.37,14.77 -219.61,128.35 -275.36,176.52 -55.73,48.17 -116.73,110.5 -123.86,136.41 -7.13,25.89 -112.91,237.23 -124.63,235.36 -11.72,-1.88 -9.97,-31.63 -22.02,-12.52 -12.06,19.11 -30.91,43.1 -20.14,50.83 10.77,7.73 38.33,42.16 38.33,42.16 0,0 -0.42,78.01 -14.95,93.71 -14.54,15.7 -19.19,45.01 -15.67,60.56 3.52,15.58 19.94,63.25 16.68,83.74 -3.29,20.5 -19.76,104.97 -8.05,106.83 11.73,1.88 18.86,-24.02 18.86,-24.02 0,0 13.81,26.23 27.41,16.39 13.59,-9.85 25.05,-44.05 25.05,-44.05 0,0 44.26,-13.96 40.74,-29.54 -3.53,-15.58 -8.69,-58.45 -8.69,-58.45 0,0 15.81,32.57 32.81,20.27 16.97,-12.32 -12.57,-53.07 -27.78,-70.51 -15.25,-17.45 -24.28,-54.93 -24.28,-54.93 l -0.85,-51.19 c 0,0 36.08,-0.23 37.48,-9.03 1.4,-8.78 67.17,-157.45 97.6,-197.64 30.43,-40.19 110.52,-90.47 99.62,-116.23 -10.9,-25.78 16.4,-27.42 30.56,-22.15 14.16,5.24 23.76,-17.25 25.16,-26.04 1.42,-8.78 118.4,-83.23 141.82,-79.46 23.43,3.72 75.54,-2.95 70.76,8.28 -4.81,11.26 -9.6,22.49 -9.6,22.49 0,0 64.75,-10.68 59.49,3.49 -5.26,14.17 -28.44,46.51 -27.37,58.69 1.05,12.19 -22.11,44.51 -18.94,81.07 3.19,36.54 -5.82,74.14 -5.82,74.14 0,0 34.87,-30.45 30.21,-1.18 -4.65,29.29 -5,50.26 -5,50.26 0,0 13.45,-27.89 27.73,-4.6 14.33,23.31 55.32,29.86 71.04,44.36 15.68,14.52 40.63,27.51 40.63,27.51 0,0 -28.59,-46.6 -10.09,-49.65 18.51,-3.06 38.66,21.17 38.66,21.17 0,0 14.99,-18.62 12.87,-42.97 -2.12,-24.38 38.28,-32.95 46.48,-46.65 8.18,-13.7 -0.23,39 -0.23,39 0,0 27.52,-40.66 20.96,-74.75 -6.58,-34.05 -4.04,-87.7 9.07,-94.64 13.13,-6.91 56.72,21.06 50.27,5.03 -6.46,-16.05 -25.22,-49.08 -7.65,-46.28 17.56,2.81 55.05,-6.23 92.31,23.74 37.26,29.98 94.34,105.15 97.53,141.69 3.16,36.53 2.98,75.54 18.05,74.95 15.13,-0.59 14.2,5.26 30.94,31.97 16.77,26.69 83.73,190.54 102.96,220.63 19.23,30.09 48.4,91.8 48.4,91.8 l 22.01,1.57"
         inkscape:connector-curvature="0"
         id="path150"
         style="fill:#110b09;fill-opacity:1;fill-rule:nonzero;stroke:none" /><path
         d="m 3468.5,823.633 c 0,0 12.88,-32.559 29.85,-40.156 16.98,-7.567 18.04,2.441 31.16,-15.028 13.1,-17.453 47.26,-83.008 89.05,-97.461 41.81,-14.453 53.62,-13.379 74.23,-4.347 20.62,9.023 46.89,-13.594 65.65,2.812 18.75,16.399 9.36,62.785 16.79,76.945 7.45,14.18 35.37,12.743 32.63,25.196 -2.7,12.468 0.86,16.765 15.4,27.215 14.52,10.461 37.85,28.859 36.41,66.437 -1.44,37.578 -13.19,48.809 -7.89,64.774 5.29,15.976 14.59,44.601 10.08,54.914 -4.5,10.312 -5.07,-0.872 -14.39,-7.668 -9.31,-6.786 -6.73,21.613 -5.09,42.794 1.64,21.2 -18.9,2.64 -22.54,-13.97 -3.64,-16.586 -13.68,28.11 -23.2,49.87 -9.54,21.75 24.47,40.75 49.66,51.77 25.18,11.03 -67.15,22.46 -91.7,13.07 -24.55,-9.37 38.41,105.53 26.15,139.72 -12.24,34.22 17.88,43.32 25.41,69.79 7.5,26.5 -50.59,149.82 -43,188.62 7.57,38.78 3.62,103.91 -0.97,123.75 -4.6,19.83 34.41,27.36 33.41,51.48 -1.03,24.11 -7.74,45.71 -17.34,55.17 -9.61,9.44 -49.82,10.94 -49.82,10.94 0,0 24.29,103.41 3.15,182.87 -21.13,79.46 -44.8,251.91 -28.34,289.14 16.46,37.21 27.75,61.27 48.79,78.67 21.03,17.41 26.26,64.71 37.57,88.76 11.3,24.06 22.17,39.74 7.56,38.82 -14.58,-0.93 -38.14,-12.62 -47.66,-34.53 -9.51,-21.9 -26.17,-52.4 -28.68,-46.68 -2.51,5.74 -11.04,47.05 -12.11,80.68 -1.09,33.63 8.54,123.82 5.31,137.43 -3.21,13.59 -17.1,26.63 -23.26,15.74 -6.15,-10.88 -15.22,-89.92 -15.8,-101.07 -0.57,-11.16 -14.83,114.94 -23.86,113.72 -9.01,-1.21 -26.41,-1.98 -24.33,-16.11 2.09,-14.1 13.43,-121.03 3.41,-119.96 -10.03,1.07 -23.67,107.02 -42.05,108.51 -18.39,1.49 -16.97,-14.24 -14.39,-29.49 2.58,-15.25 23.15,-105.85 19.79,-116.89 -3.35,-11.04 -48.64,67.42 -64.09,71.57 -15.45,4.15 -22.83,-19.56 -10.94,-27.99 11.88,-8.44 49.56,-60.19 46.76,-81.89 -2.78,-21.69 -13.31,-63.12 -1.98,-104.57 11.33,-41.45 21.63,-80.59 20.78,-97.34 -0.86,-16.76 -37.64,-244.36 -39.57,-292.96 -1.92,-48.6 12.34,-87.37 4.96,-89.25 -7.38,-1.87 -28.19,-26.01 -32.34,-63.29 -4.14,-37.29 8.11,-49.67 25.79,-65.12 17.68,-15.47 -5.12,-56.84 -17.36,-88.12 -12.25,-31.27 -5.42,-84.26 -5.42,-84.26 0,0 -41.89,111.31 -61.87,147.62 -19.99,36.28 -42.33,81.07 -28.38,124.03 13.95,42.94 48.18,33.35 35.13,63.14 -13.05,29.77 -69.67,71.85 -117.91,69.83 -48.25,-2 -70.15,-14.33 -70.15,-14.33 0,0 -103.48,264.44 -129.55,302.15 -26.05,37.73 -33.02,131.52 -53.14,165.02 -20.12,33.49 -68.95,85.8 -78.97,108.7 -10.04,22.91 -62.32,182.84 -84.65,205.82 -22.34,22.97 -1.37,49.9 -23,64.99 -21.62,15.1 -19.19,40.73 -15.05,56.19 4.15,15.45 -58.7,165.31 -103.75,237.01 -45.04,71.72 -133.32,173.61 -143.77,209.96 -10.46,36.35 9.56,56.05 -5.39,80.87 -14.96,24.83 -27.23,59.06 -42.18,62.07 -14.96,2.98 -45.59,16.85 -46.53,31.46 -0.94,14.61 -24.92,103.69 -22.49,151.13 2.41,47.46 -29.53,145.38 -82.66,179.43 -53.12,34.07 -119.37,-14.06 -131.82,-60.46 -12.45,-46.38 -4.2,-93.25 22.3,-188.09 26.51,-94.83 27.59,-128.48 23.59,-141.16 -4.01,-12.66 3.46,-85.78 21.58,-114.7 18.11,-28.93 49.97,-29.98 49.97,-29.98 0,0 0.94,-58.26 18.98,-77.66 18.04,-19.4 41.81,-36.29 43.12,-54.82 1.28,-18.54 45.06,-202.68 85.87,-302.17 40.83,-99.49 95.4,-214.76 85.61,-242.25 -9.79,-27.5 2.37,-52.2 16.27,-65.21 13.89,-13.02 70.34,-179.35 78.3,-231.82 7.95,-52.46 107.95,-352.53 100.44,-357.19 -7.51,-4.66 -97.53,172.88 -128.61,200.24 -31.07,27.34 -36.44,20.88 -51.62,52.46 -15.18,31.56 -66.87,115.35 -98.66,150.55 -31.78,35.22 -95.67,165.53 -103.68,162.03 -8.02,-3.52 18.89,19.18 -4.16,28.2 -23.05,9.02 -13.54,52.74 -31.15,58.69 -17.61,5.94 -111.95,274.4 -102.15,301.89 9.8,27.49 -24.92,60.03 -41.89,67.63 -16.96,7.58 -31.93,32.4 -27.42,43.95 4.51,11.52 28.33,72.43 18.73,81.88 -9.6,9.44 -58.71,56.17 -85.34,60.9 -26.63,4.72 -55.89,12.34 -74.36,45.2 -18.49,32.85 -75.9,114.16 -143.99,151.21 -68.09,37.07 -118.97,37.98 -138.94,30.6 -19.98,-7.37 -46.87,-51.9 -21.17,-107.5 25.72,-55.62 84.64,-118.53 101.61,-147.93 16.98,-29.42 68.97,-85.8 69.25,-102.04 0.29,-16.25 -33.86,-16.19 -19.96,-51.04 13.91,-34.86 68.67,-91.39 77.19,-132.69 8.53,-41.31 24.1,-164.13 41.06,-193.56 16.98,-29.39 117.59,-196.88 135.14,-236.97 17.54,-40.06 28.66,-96.61 48.06,-122.23 19.41,-25.62 68,-93 69.02,-117.13 1.01,-24.13 57.73,-163.04 110.01,-257.5 52.27,-94.49 175.23,-306.76 191.77,-322.7 16.53,-15.95 41.83,-45.79 35.82,-53.88 -6.01,-8.09 -22.61,-26.27 -22.61,-26.27 0,0 -70.71,61.8 -129.07,92.22 -58.34,30.4 -68.22,34.25 -77.38,52.08 -9.17,17.83 -28.5,55.76 -42.25,71.58 -13.75,15.8 -18.83,36.76 -16.05,58.47 2.79,21.69 1.06,53.67 -12.25,56.04 -13.32,2.37 -16.68,-8.67 -15.88,-26.07 0.79,-17.38 -7.87,-66.21 -16.88,-67.42 -9.02,-1.21 -42.83,82.26 -47.84,93.69 -5,11.45 -33.64,20.74 -29.06,0.91 4.58,-19.82 48.42,-104.35 43.05,-110.78 -5.37,-6.46 -19.55,1 -26.35,10.3 -6.8,9.31 -59.21,79.15 -74.18,82.16 -14.96,2.99 -19.39,-18.05 -15.09,-21.63 4.29,-3.58 69.88,-78.58 71.46,-91.53 1.57,-12.95 -12.02,-16.16 -24.41,-6.6 -12.38,9.58 -95.5,37.35 -103.23,39.42 -7.73,2.08 -23.33,-18.4 0.58,-32.5 23.92,-14.09 111.03,-51 122.62,-65.02 11.62,-14.03 31.38,-43.59 27.65,-50.68 -3.72,-7.1 -30.56,-17.47 -54.68,-18.47 -24.12,-1.02 -47.67,-12.69 -46.37,-31.23 1.29,-18.54 28.63,-9.29 60.99,-11.51 32.35,-2.21 70.22,4.82 92.76,18.78 22.54,13.95 26.12,18.24 40.29,10.81 14.18,-7.44 195.82,-188.55 206.92,-201.44 11.09,-12.87 1.64,-44.29 6.31,-73.63 4.66,-29.35 20.76,-31.84 38.72,-41.72 17.98,-9.87 -62.7,-21.99 -94.2,-3.02 -31.48,18.94 -104.27,-36.1 -104.27,-36.1 0,0 70.22,4.81 89.55,-33.13 19.34,-37.94 56.36,-69.49 96.15,-79.35 39.8,-9.88 152.45,-17.86 189.68,-56.149 37.24,-38.281 121.63,-171.914 168.03,-206.199 46.39,-34.25 164.87,-71.106 202.09,-65.727 37.2,5.383 72.43,37.168 89.47,20.07 17.04,-17.097 19.34,-59.753 28.5,-55.742 9.16,4.004 58.03,51.328 65.97,86.192 7.94,34.855 29.42,38.816 50.53,46.691 21.11,7.871 44.64,19.637 44.64,19.637"
         inkscape:connector-curvature="0"
         id="path152"
         style="fill:#110b09;fill-opacity:1;fill-rule:nonzero;stroke:none" /></g></g></svg>